<?xml version="1.0" encoding="utf-8"?>
<!-- Generator: Adobe Illustrator 25.2.0, SVG Export Plug-In . SVG Version: 6.00 Build 0)  -->
<svg version="1.1" id="Layer_1" xmlns="http://www.w3.org/2000/svg" xmlns:xlink="http://www.w3.org/1999/xlink" x="0px" y="0px"
	 viewBox="0 0 128 128" style="enable-background:new 0 0 128 128;" xml:space="preserve">
<style type="text/css">
	.st0{fill:none;stroke:#000000;stroke-width:8.1085;stroke-linecap:round;stroke-linejoin:round;stroke-miterlimit:7.3333;}
	.st1{fill:none;stroke:#000000;stroke-width:4.0542;stroke-linecap:round;stroke-linejoin:round;stroke-miterlimit:7.3333;}
</style>
<g>
	<g id="XMLID_1_">
		<path class="st0" d="M98.3,77.2c0,0,31.9-73.2-18.8-71.3C74.9,6,70.9,6.8,67.7,8"/>
		<path class="st0" d="M67.7,8c-32.2,12-1.3,69.2-1.3,69.2s7.5,10.3,1.4,14.5s-31,1.4-35.2,11.7s4.2,18.8,4.2,18.8"/>
		<path class="st0" d="M67.7,8c-3.8-1.6-8.6-2.4-14.5-2.1C2.6,7.7,40.1,77.1,40.1,77.1s7.5,10.3,1.4,14.5s-31,1.4-35.2,11.7
			s4.2,18.8,4.2,18.8"/>
	</g>
	<path class="st1" d="M94.7,103.4v-5.3c0-2.9,2.4-5.3,5.3-5.3h22.9 M117.6,87.5l5.3,5.3l-5.3,5.3"/>
	<path class="st1" d="M122.9,103.4v5.3c0,2.9-2.4,5.3-5.3,5.3H94.7 M100,119.2l-5.3-5.3l5.3-5.3"/>
</g>
</svg>
